<svg width="200" height="200" viewBox="0 0 200 200" fill="none" xmlns="http://www.w3.org/2000/svg">
<path d="M99.5 107.688C117.356 107.688 131.844 93.2002 131.844 75.3438C131.844 57.4873 117.356 43 99.5 43C81.6436 43 67.1562 57.4873 67.1562 75.3438C67.1562 93.2002 81.6436 107.688 99.5 107.688ZM128.25 114.875V114.875C120.096 114.875 112.108 117.267 104.009 118.208C102.529 118.38 101.024 118.469 99.5 118.469C97.9747 118.469 96.4709 118.38 94.9921 118.208C86.8918 117.265 78.905 114.875 70.75 114.875V114.875C54.8701 114.875 42 127.745 42 143.625V147.219C42 153.171 46.8291 158 52.7812 158H146.219C152.171 158 157 153.171 157 147.219V143.625C157 127.745 144.13 114.875 128.25 114.875Z" fill="black"/>
</svg>
